<svg xmlns="http://www.w3.org/2000/svg" xmlns:xlink="http://www.w3.org/1999/xlink" width="72.575" height="59.682" viewBox="0 0 72.575 59.682">
  <defs>
    <linearGradient id="linear-gradient" y1="0.5" x2="1" y2="0.5" gradientUnits="objectBoundingBox">
      <stop offset="0" stop-color="#7e3ef8"/>
      <stop offset="1" stop-color="#ec61f2"/>
    </linearGradient>
    <clipPath id="clip-path">
      <path id="Path_387281" data-name="Path 387281" d="M556.483,734.651l55.335.467-.155-9.837-55.335-.467Z" transform="translate(-556.328 -724.814)" fill="none"/>
    </clipPath>
  </defs>
  <g id="logo_ca" data-name="logo ca" transform="translate(-14.46 -15.011)">
    <path id="Path_387266" data-name="Path 387266" d="M240.908,197.105l-6.652-6.652a3.536,3.536,0,0,0-2.487-1.027c-.051,0-.108.006-.16.006l-57.625,2.876c-.057,0-.115.006-.172.006a3.494,3.494,0,0,1-3.489-3.489v-.057l.376-27.6.166-11.838.089-6.531a3.49,3.49,0,0,1,3.827-3.425l62.447,5.976h.006a3.493,3.493,0,0,1,3.151,3.438l.064,5.664.089,8.757.274,25.34v.038Z" transform="translate(-155.863 -124.345)" fill="#2a217f"/>
    <path id="Path_387267" data-name="Path 387267" d="M244.3,196.6,181.65,199.6a3.344,3.344,0,0,1-3.641-3.363v-.057l.376-27.6.166-11.838.089-6.531a3.49,3.49,0,0,1,3.827-3.425l62.447,5.976h.006a3.493,3.493,0,0,1,3.151,3.438l.064,5.664.089,8.757.23,21.575A4.359,4.359,0,0,1,244.3,196.6Z" transform="translate(-161.564 -129.845)" fill="#2b7cc9"/>
    <path id="Path_387268" data-name="Path 387268" d="M443.593,331.547" transform="translate(-358.574 -266.912)" fill="none"/>
    <path id="Path_387269" data-name="Path 387269" d="M248.615,204.586l-6.652-6.652a3.536,3.536,0,0,0-2.488-1.027c-.051,0-.108.006-.159.006l-57.625,2.876c-.058,0-.115.006-.172.006a3.494,3.494,0,0,1-3.489-3.489v-.057l.376-27.6.166-11.837.089-6.531a3.49,3.49,0,0,1,3.827-3.425l62.447,5.976h.006a3.493,3.493,0,0,1,3.151,3.438l.064,5.664.089,8.757.274,25.34v.038Z" transform="translate(-161.58 -129.894)" fill="url(#linear-gradient)"/>
    <g id="Group_158037" data-name="Group 158037" transform="translate(23.998 40.009)">
      <g id="Group_158036" data-name="Group 158036" clip-path="url(#clip-path)">
        <path id="Path_387270" data-name="Path 387270" d="M869.019,735.193a16.05,16.05,0,0,1,.575,1.5,1.078,1.078,0,0,0,1.3.934,13.08,13.08,0,0,1,2,.01,1.109,1.109,0,0,0,1.1-.556c1.885-2.828,3.795-5.639,5.693-8.457.116-.174.213-.36.391-.666a12.78,12.78,0,0,1-1.33-.02,1.251,1.251,0,0,0-1.373.7c-.482.823-1.052,1.591-1.629,2.45-.178-.232-.3-.385-.418-.546-.514-.738-1.019-1.482-1.543-2.214-.113-.158-.286-.373-.439-.384-.654-.048-1.311-.029-2.1-.036.178.3.279.492.4.67.837,1.235,1.664,2.478,2.523,3.7a.73.73,0,0,1,.005.974c-.708,1.017-1.381,2.058-2.072,3.087-.084.124-.194.229-.36.422-.131-.3-.233-.514-.319-.733-1.005-2.538-2.026-5.072-3-7.624-.222-.583-.614-.556-1.062-.555s-.891-.066-1.106.545c-1,2.839-2.042,5.66-3.066,8.489-.064.177-.095.366-.172.661.484,0,.865-.023,1.24.018a.831.831,0,0,0,1.044-.711c.129-.527.357-1.029.59-1.68m.017-.064,1.379-3.976.181-.006,1.533,4.008" transform="translate(-824.742 -727.467)" fill="#2a217f"/>
        <path id="Path_387271" data-name="Path 387271" d="M562.777,729.231,561.494,734c-.255.953-.8,1.254-1.776.939a.656.656,0,0,1-.351-.369q-1.515-4.488-3-8.984a1.544,1.544,0,0,1-.008-.341c.6.005,1.2-.021,1.786.039.134.013.3.31.36.5.48,1.429.939,2.864,1.4,4.3a2.539,2.539,0,0,0,.431.871c.079-.274.164-.547.237-.823.374-1.419.761-2.835,1.109-4.261a.671.671,0,0,1,.786-.612c1.473.057,1.2-.178,1.629,1.231.39,1.286.758,2.578,1.14,3.866a1.146,1.146,0,0,0,.322.546c.1-.315.212-.628.306-.946.395-1.33.8-2.655,1.166-3.993.133-.488.363-.712.887-.659.416.042.837.015,1.36.019-.069.317-.1.526-.161.726-.858,2.8-1.744,5.6-2.565,8.417-.214.733-.729.513-1.2.558a.719.719,0,0,1-.875-.618c-.423-1.529-.894-3.048-1.347-4.569-.062-.208-.136-.413-.2-.619l-.155.019" transform="translate(-556.35 -725.186)" fill="#fafafc"/>
        <path id="Path_387272" data-name="Path 387272" d="M814.236,731.99c-.022-1.4-.028-2.791-.073-4.186-.016-.5.169-.675.664-.659,1.032.034,2.064.011,3.1.038a3.111,3.111,0,0,1,3.2,3.5,3,3,0,0,1-3.5,2.812c-.163-.02-.34-.256-.44-.43-.071-.125,0-.319-.03-.478-.082-.5.032-.791.415-.923a1.638,1.638,0,0,1,.386-.075,1.092,1.092,0,0,0,1.125-1.28c-.025-.76-.379-1.116-1.234-1.241-1.554-.226-1.63-.163-1.606,1.351.03,1.9.045,3.8.1,5.7.016.562-.141.8-.742.778-1.458-.052-1.272.1-1.3-1.271-.027-1.214-.04-2.427-.059-3.64" transform="translate(-781.98 -726.853)" fill="#2a217f"/>
        <path id="Path_387273" data-name="Path 387273" d="M666.54,726.235c.024.335.05.552.053.769.045,2.711.073,5.422.14,8.133.015.586-.117.837-.76.809-1.37-.058-1.2.059-1.222-1.233-.045-2.387-.06-4.775-.127-7.162-.016-.566.148-.869.706-.976.384-.074.755-.209,1.209-.34" transform="translate(-651.107 -726.058)" fill="#fafafc"/>
        <path id="Path_387274" data-name="Path 387274" d="M756.683,726.995c.024.335.05.552.053.769.045,2.711.073,5.422.14,8.133.015.586-.117.837-.76.809-1.37-.058-1.2.059-1.222-1.233-.045-2.387-.06-4.775-.127-7.161-.016-.566.148-.869.706-.976.384-.074.755-.209,1.209-.34" transform="translate(-729.998 -726.723)" fill="#fafafc"/>
        <path id="Path_387275" data-name="Path 387275" d="M759.135,760.048c-.828-.007-1.656-.029-2.482-.015-.448.008-.668-.123-.667-.618,0-1.5-.137-1.306,1.263-1.3s2.827.046,4.238.023c.595-.01.77.209.761.779-.02,1.27.114,1.155-1.113,1.151-.666,0-1.332-.011-2-.017" transform="translate(-731.062 -753.947)" fill="#fafafc"/>
        <path id="Path_387276" data-name="Path 387276" d="M757.911,728.609c-.841-.007-1.682-.029-2.522-.016-.463.007-.66-.148-.675-.632-.037-1.242-.057-1.242,1.185-1.231,1.456.012,2.913.045,4.368.027.576-.007.859.165.789.759a1.412,1.412,0,0,0,.006.363c.084.581-.159.793-.753.759-.8-.046-1.6-.023-2.4-.03" transform="translate(-729.942 -726.49)" fill="#fafafc"/>
        <path id="Path_387277" data-name="Path 387277" d="M759.494,791.814c-.808-.007-1.617-.029-2.424-.015-.456.008-.651-.145-.664-.63-.033-1.224-.053-1.224,1.177-1.213,1.455.012,2.91.041,4.364.028.513,0,.722.144.724.69,0,1.167.031,1.168-1.116,1.158l-2.061-.017" transform="translate(-731.425 -781.823)" fill="#fafafc"/>
        <path id="Path_387278" data-name="Path 387278" d="M886.11,780.909l-4.123-.035-.027-1.7,4.123.035Z" transform="translate(-841.316 -772.389)" fill="#2a217f"/>
        <path id="Path_387279" data-name="Path 387279" d="M838.026,764.727l-.643-.036s-.145.057-.206.316a1.487,1.487,0,0,0-.047.584.933.933,0,0,0,.464.713c.217.109.3.067.3.067l.192-.754Z" transform="translate(-802.072 -759.714)" fill="#2a217f"/>
        <path id="Path_387280" data-name="Path 387280" d="M687.215,736.873q-.434,0-.542-.224a.609.609,0,0,1,.124-.584l4.648-6.942-4.66-.044a.482.482,0,0,1-.359-.142.529.529,0,0,1-.139-.374l-.011-.732a.505.505,0,0,1,.127-.372.46.46,0,0,1,.355-.136l7.067.067q.434,0,.542.224t-.138.583l-4.634,6.943,4.31.041a.479.479,0,0,1,.5.447.5.5,0,0,1,0,.069l.011.731a.458.458,0,0,1-.416.508.442.442,0,0,1-.066,0Z" transform="translate(-670.055 -727.009)" fill="#fafafc"/>
      </g>
    </g>
  </g>
</svg>
